<svg
  xmlns="http://www.w3.org/2000/svg"
  viewBox="0 0 24 24"
  width="48"
  height="48"
>


  <!-- Gradient Definitions -->
  <defs>
    <linearGradient id="blueGradient" x1="0%" y1="0%" x2="100%" y2="100%">
      <stop offset="0%" style="stop-color: #41d1ff; stop-opacity: 1" />
      <stop offset="100%" style="stop-color: #007bff; stop-opacity: 1" />
    </linearGradient>
  </defs>

  <path
    d="M12 14a3 3 0 003-3V5a3 3 0 10-6 0v6a3 3 0 003 3zm5-3a5 5 0 01-10 0H5a7 7 0 0014 0h-2zm-5 8a7 7 0 007-7h2a9 9 0 01-8 8.95V22h-2v-1.05A9 9 0 013 12h2a7 7 0 007 7z"
    fill="url(#blueGradient)"
  />

  <ellipse
    cx="12"
    cy="23"
    rx="6"
    ry="1.5"
    fill="#dce4f7"
    opacity="0.6"
  />
</svg>
